<svg xmlns="http://www.w3.org/2000/svg" viewBox="0 0 1000 1000" width="1000" height="1000">
  <rect width="1000" height="1000" fill="#0E2620"/>
  <g>
    <!-- Estilizado R: barra esquerda angular + curva superior + perna diagonal -->
    <path d="M260 270 L420 270 L630 270 Q760 270 760 405 Q760 510 660 540 L760 730 L600 730 L520 575 L380 575 L380 730 L260 730 Z M380 380 L380 470 L590 470 Q650 470 650 425 Q650 380 590 380 Z" fill="#2EE584"/>
    <!-- Detalhe lateral esquerda em paralelogramo -->
    <path d="M226 296 L260 270 L260 730 L226 705 Z" fill="#2EE584"/>
    <!-- Acento vermelho na base -->
    <path d="M520 750 L660 750 L640 778 L500 778 Z" fill="#B91D2F"/>
  </g>
</svg>
